#!OML:ASF F:\VICON\USERDATA\Patient Classification 1\PLAYGROUND\JustinFriday\JustinFriday.ASF
:FULLY-SPECIFIED
:DEGREES
1799
root -0.291228 9.74365 -8.64765 -579.804 -169.18 178.041
lowerback 35.6763 1.29111 4.48195
upperback 5.71679 3.86677 4.13423
thorax -11.5295 1.63188 0.514706
lowerneck 2.32501 -2.81516 -10.4339
upperneck 12.2128 -4.19308 4.8242
head 3.59115 -2.35738 3.06948
rclavicle 2.52457e-014 1.19271e-014
rhumerus 63.4192 4.48073 -63.9535
rradius 60.1956
rwrist 377.777
rhand -24.6242 -21.366
rfingers 7.12502
rthumb 1.87455 -51.3375
lclavicle 2.52457e-014 1.19271e-014
lhumerus 60.843 9.82579 63.7456
lradius 53.5184
lwrist -22.3602
lhand -8.3418 -4.21855
lfingers 7.12502
lthumb 17.5799 25.0066
rfemur -51.6046 -5.56404 21.8283
rtibia 91.5342
rfoot 1.52723 -3.84997
rtoes 16.433
lfemur -57.2575 13.6423 -3.59235
ltibia 105.059
lfoot -10.0235 -15.2166
ltoes -17.8505
1800
root -0.3202 9.61933 -8.41323 -580.848 -169.471 178.176
lowerback 35.6464 1.28085 4.35376
upperback 5.76689 3.80726 4.16348
thorax -11.4736 1.61251 0.638189
lowerneck 1.80232 -3.22938 -10.0507
upperneck 13.7212 -4.63355 3.93422
head 4.14596 -2.61666 2.70405
rclavicle 6.95746e-015 1.19271e-014
rhumerus 63.8313 4.52854 -64.0494
rradius 59.3714
rwrist 378.03
rhand -24.3575 -20.7515
rfingers 7.12502
rthumb 2.13209 -50.7206
lclavicle 6.95746e-015 1.19271e-014
lhumerus 60.9897 9.84572 63.2066
lradius 52.8235
lwrist -21.557
lhand -8.83121 -4.64862
lfingers 7.12502
lthumb 17.1089 24.6181
rfemur -51.642 -5.81016 21.3186
rtibia 94.2515
rfoot 0.549046 -3.73933
rtoes 17.0827
lfemur -56.5627 13.2206 -3.88103
ltibia 101.99
lfoot -9.91513 -14.1673
ltoes -18.7546
1801
root -0.347759 9.49464 -8.17366 -581.839 -169.728 178.241
lowerback 35.7231 1.23939 4.23231
upperback 5.75814 3.7199 4.18425
thorax -11.5235 1.57608 0.75738
lowerneck 1.23726 -3.32569 -9.06848
upperneck 14.9393 -4.59375 2.6843
head 4.56216 -2.62443 2.14507
rclavicle 2.98177e-015 1.74931e-014
rhumerus 64.0372 4.56461 -64.2093
rradius 59.2664
rwrist 378.142
rhand -23.4454 -20.6398
rfingers 7.12502
rthumb 3.01298 -50.5983
lclavicle 2.98177e-015 1.74931e-014
lhumerus 61.0624 9.85109 62.8519
lradius 52.2394
lwrist -20.9752
lhand -9.33216 -4.90397
lfingers 7.12502
lthumb 16.6267 24.4039
rfemur -51.5254 -6.02098 20.9405
rtibia 96.7592
rfoot -0.430777 -3.81366
rtoes 17.5237
lfemur -56.0131 12.8212 -4.09555
ltibia 99.025
lfoot -10.1473 -13.2679
ltoes -19.8681
1802
root -0.378945 9.4184 -7.99025 -582.739 -170.15 178.096
lowerback 35.7393 1.20104 4.17308
upperback 5.71082 3.68285 4.36208
thorax -11.6029 1.56202 0.99292
lowerneck 2.35622 -3.23206 -9.81253
upperneck 14.5561 -4.65838 3.48442
head 4.29811 -2.66033 2.53325
rclavicle -3.67752e-014 -1.90833e-014
rhumerus 63.9332 4.37748 -63.9578
rradius 59.3235
rwrist 377.905
rhand -22.5491 -20.696
rfingers 7.12502
rthumb 3.87857 -50.6404
lclavicle -3.67752e-014 -1.90833e-014
lhumerus 61.2069 9.65028 62.9951
lradius 51.6805
lwrist -20.4428
lhand -9.95589 -5.05143
lfingers 7.12502
lthumb 16.0261 24.3057
rfemur -50.9328 -5.99979 20.686
rtibia 98.7224
rfoot -1.34241 -4.41214
rtoes 18.9594
lfemur -55.1896 12.3043 -4.3316
ltibia 95.6839
lfoot -11.3384 -12.5231
ltoes -20.0872
1803
root -0.410719 9.30781 -7.75506 -583.537 -170.703 177.773
lowerback 35.411 1.03745 4.17871
upperback 5.7555 3.48948 4.58196
thorax -11.5622 1.47941 1.27358
lowerneck 3.10436 -3.03317 -10.7516
upperneck 14.6637 -4.57226 4.40695
head 4.24226 -2.63633 2.99006
rclavicle 2.80286e-014 -2.22639e-014
rhumerus 64.0429 4.31851 -63.7132
rradius 58.9272
rwrist 377.667
rhand -22.1279 -20.4912
rfingers 7.12502
rthumb 4.28527 -50.4278
lclavicle 2.80286e-014 -2.22639e-014
lhumerus 61.2713 9.5098 63.2602
lradius 51.0973
lwrist -20.1177
lhand -10.6048 -5.23168
lfingers 7.12502
lthumb 15.4012 24.1746
rfemur -50.8307 -6.69858 20.4663
rtibia 101.06
rfoot -1.99928 -4.85823
rtoes 20.3936
lfemur -54.736 11.8124 -4.55258
ltibia 92.591
lfoot -10.8852 -11.9865
ltoes -21.0799
1804
root -0.436102 9.21292 -7.5297 -584.63 -171.124 178.181
lowerback 35.4239 0.969943 3.50816
upperback 5.88555 3.11809 4.40349
thorax -11.4458 1.33178 1.58831
lowerneck 2.60516 -2.80436 -10.6621
upperneck 15.5339 -4.24999 4.60078
head 4.56514 -2.47568 3.04166
rclavicle 1.19271e-014 -5.56597e-015
rhumerus 64.7403 4.72739 -64.4143
rradius 58.3068
rwrist 377.827
rhand -21.787 -20.104
rfingers 7.12502
rthumb 4.61441 -50.0337
lclavicle 1.19271e-014 -5.56597e-015
lhumerus 61.5044 9.93723 63.0362
lradius 50.2432
lwrist -20.0311
lhand -11.2506 -5.53618
lfingers 7.12502
lthumb 14.779 23.9169
rfemur -50.6838 -6.95351 19.739
rtibia 103.343
rfoot -2.06841 -5.37687
rtoes 21.4154
lfemur -53.4755 11.7567 -5.21619
ltibia 89.1175
lfoot -10.8364 -11.5129
ltoes -21.8407
1805
root -0.458624 9.09865 -7.27612 -585.716 -171.981 178.868
lowerback 35.3434 1.02827 2.52148
upperback 6.01503 2.76705 4.06078
thorax -11.295 1.2026 1.88784
lowerneck 1.9752 -2.77218 -10.3458
upperneck 16.5734 -4.18001 4.68731
head 4.97671 -2.43095 3.013
rclavicle -5.96354e-016 -2.06736e-014
rhumerus 65.2358 4.77416 -64.9509
rradius 57.8909
rwrist 377.323
rhand -20.5897 -20.2333
rfingers 7.12502
rthumb 5.77049 -50.1347
lclavicle -5.96354e-016 -2.06736e-014
lhumerus 62.013 10.0935 62.9553
lradius 49.332
lwrist -19.7181
lhand -11.7277 -5.63431
lfingers 7.12502
lthumb 14.3194 23.8519
rfemur -50.8521 -7.32234 18.3473
rtibia 105.923
rfoot -1.73836 -5.8808
rtoes 21.9493
lfemur -52.2595 11.5581 -6.41925
ltibia 85.7552
lfoot -10.8462 -11.3691
ltoes -22.3856
1806
root -0.478711 8.99381 -7.02517 -586.67 -172.388 178.763
lowerback 35.442 1.02688 2.57171
upperback 5.91305 2.80227 4.07492
thorax -11.4468 1.21754 1.85975
lowerneck 1.33578 -3.11831 -9.87473
upperneck 18.0985 -4.52258 3.94354
head 5.56364 -2.63229 2.67527
rclavicle -6.16232e-015 -1.03368e-014
rhumerus 65.1945 4.35743 -64.8536
rradius 57.5046
rwrist 376.679
rhand -19.7488 -20.5971
rfingers 7.12502
rthumb 6.58228 -50.4748
lclavicle -6.16232e-015 -1.03368e-014
lhumerus 62.3403 9.53823 63.4236
lradius 48.8226
lwrist -19.0412
lhand -12.1899 -5.30974
lfingers 7.12502
lthumb 13.874 24.2075
rfemur -50.9861 -7.85588 17.9569
rtibia 108.3
rfoot -1.15267 -6.6413
rtoes 22.741
lfemur -50.9833 11.2691 -6.61058
ltibia 82.4036
lfoot -11.0512 -11.5132
ltoes -22.4546
1807
root -0.495849 8.89113 -6.77047 -587.568 -172.351 178.204
lowerback 35.685 0.903527 3.17734
upperback 5.69224 2.93934 4.33303
thorax -11.7759 1.25864 1.75524
lowerneck 2.9536 -3.09476 -10.5627
upperneck 17.2838 -4.72969 4.61972
head 5.08422 -2.74516 3.01992
rclavicle -6.55989e-015 1.43125e-014
rhumerus 65.14 4.18623 -64.9279
rradius 56.5777
rwrist 377.35
rhand -20.5852 -19.9023
rfingers 7.12502
rthumb 5.77483 -49.8036
lclavicle -6.55989e-015 1.43125e-014
lhumerus 62.451 8.89071 64.1323
lradius 48.3457
lwrist -18.2492
lhand -12.8555 -5.16679
lfingers 7.12502
lthumb 13.2325 24.3932
rfemur -51.1462 -8.30681 18.3262
rtibia 110.587
rfoot -0.339556 -7.68091
rtoes 23.1123
lfemur -49.6795 11.0447 -6.08298
ltibia 79.2111
lfoot -11.5824 -11.7171
ltoes -20.0483
1808
root -0.509939 8.78811 -6.51197 -588.591 -172.644 178.022
lowerback 35.737 0.733331 3.25297
upperback 5.70397 2.76023 4.37424
thorax -11.7771 1.17504 1.83272
lowerneck 3.8041 -3.1222 -10.6694
upperneck 16.7545 -4.84063 4.55047
head 4.79106 -2.81236 3.02518
rclavicle 3.00165e-014 1.82882e-014
rhumerus 65.5764 4.36438 -65.6727
rradius 55.539
rwrist 378.477
rhand -20.9217 -19.1567
rfingers 7.12502
rthumb 5.44994 -49.0666
lclavicle 3.00165e-014 1.82882e-014
lhumerus 62.6895 8.7624 64.7019
lradius 47.6995
lwrist -17.996
lhand -13.76 -5.68872
lfingers 7.12502
lthumb 12.3605 23.9259
rfemur -51.4018 -8.91592 18.0651
rtibia 112.896
rfoot 1.11651 -8.55457
rtoes 22.637
lfemur -48.2975 10.8218 -6.14032
ltibia 76.1741
lfoot -12.2555 -11.8544
ltoes -15.9643
1809
root -0.522514 8.69457 -6.26399 -589.443 -173.949 178.787
lowerback 35.3996 0.798984 2.04506
upperback 5.80255 2.31192 3.95953
thorax -11.5618 1.01158 2.21511
lowerneck 3.69298 -2.91791 -10.8997
upperneck 17.3676 -4.63856 5.08543
head 4.99617 -2.71057 3.24062
rclavicle 1.21259e-014 -7.95139e-015
rhumerus 66.1617 4.42183 -66.6395
rradius 54.8399
rwrist 379.463
rhand -20.1688 -18.9474
rfingers 7.12502
rthumb 6.17688 -48.8374
lclavicle 1.21259e-014 -7.95139e-015
lhumerus 62.9707 8.79027 65.0768
lradius 47.2452
lwrist -18.0646
lhand -14.7049 -5.91812
lfingers 7.12502
lthumb 11.4494 23.7492
rfemur -52.3356 -9.88029 16.0638
rtibia 115.394
rfoot 3.3222 -8.99818
rtoes 23.171
lfemur -47.0963 10.3805 -7.7612
ltibia 73.1976
lfoot -12.3217 -11.8882
ltoes -14.959
1810
root -0.53674 8.60862 -6.01753 -590.359 -175.803 179.872
lowerback 35.1987 1.00288 0.214861
upperback 5.87608 1.80505 3.38876
thorax -11.4224 0.834912 2.78679
lowerneck 3.6883 -2.90391 -10.5805
upperneck 17.6177 -4.60444 4.90923
head 5.06002 -2.68839 3.13427
rclavicle 4.17448e-015 1.74931e-014
rhumerus 66.6354 4.2751 -67.2702
rradius 54.218
rwrist 380.038
rhand -19.6492 -18.6342
rfingers 7.12502
rthumb 6.67847 -48.5089
lclavicle 4.17448e-015 1.74931e-014
lhumerus 63.1198 8.65067 65.2135
lradius 47.0844
lwrist -17.5352
lhand -15.114 -5.28863
lfingers 7.12502
lthumb 11.0548 24.4002
rfemur -53.2435 -11.1606 13.1339
rtibia 117.953
rfoot 5.75641 -9.39566
rtoes 25.1103
lfemur -45.6555 9.64658 -9.98165
ltibia 70.3578
lfoot -11.5868 -11.873
ltoes -15.9862
1811
root -0.555836 8.51985 -5.75956 -591.69 -176.28 179.565
lowerback 35.562 0.883716 0.166902
upperback 5.94123 1.64096 3.39805
thorax -11.479 0.759862 2.88704
lowerneck 3.65047 -3.00467 -10.3171
upperneck 18.1672 -4.71189 4.61075
head 5.23473 -2.75056 2.992
rclavicle 2.16675e-014 3.10104e-014
rhumerus 66.8849 4.08866 -67.5056
rradius 53.5598
rwrist 379.931
rhand -19.1493 -18.4289
rfingers 7.12502
rthumb 7.16106 -48.2877
lclavicle 2.16675e-014 3.10104e-014
lhumerus 63.0038 8.26328 65.6678
lradius 47.2412
lwrist -16.9306
lhand -15.4643 -4.90358
lfingers 7.12502
lthumb 10.7169 24.8031
rfemur -53.2379 -12.0566 12.5812
rtibia 120.131
rfoot 7.68533 -10.9608
rtoes 28.6712
lfemur -43.7932 9.12489 -9.88995
ltibia 68.0071
lfoot -10.9065 -12.181
ltoes -18.1012
